<svg xmlns="http://www.w3.org/2000/svg" width="420" height="420" viewBox="0 0 420 420" role="img" aria-labelledby="title desc">
<title id="title">管理员微信二维码占位图</title><desc id="desc">部署前替换为管理员真实微信二维码。</desc>
<rect width="420" height="420" rx="32" fill="#f7faf8"/><rect x="20" y="20" width="380" height="380" rx="24" fill="#fff" stroke="#d7e4dc" stroke-width="4"/>
<g fill="#08140d"><path d="M48 48h98v98H48zM62 62h70v70H62z" fill-rule="evenodd"/><rect x="80" y="80" width="34" height="34" fill="#4fe27b"/><path d="M274 48h98v98h-98zM288 62h70v70h-70z" fill-rule="evenodd"/><rect x="306" y="80" width="34" height="34" fill="#4fe27b"/><path d="M48 274h98v98H48zM62 288h70v70H62z" fill-rule="evenodd"/><rect x="80" y="306" width="34" height="34" fill="#4fe27b"/>
<rect x="172" y="52" width="20" height="20"/><rect x="206" y="52" width="20" height="20"/><rect x="170" y="88" width="58" height="20"/><rect x="168" y="124" width="20" height="54"/><rect x="206" y="122" width="20" height="20"/><rect x="242" y="154" width="20" height="20"/><rect x="278" y="168" width="58" height="20"/><rect x="350" y="166" width="20" height="58"/><rect x="50" y="174" width="20" height="20"/><rect x="86" y="174" width="56" height="20"/><rect x="50" y="210" width="20" height="56"/><rect x="88" y="216" width="20" height="20"/><rect x="124" y="208" width="20" height="58"/><rect x="166" y="202" width="20" height="20"/><rect x="204" y="196" width="58" height="20"/><rect x="170" y="238" width="20" height="20"/><rect x="208" y="238" width="20" height="58"/><rect x="244" y="236" width="58" height="20"/><rect x="278" y="276" width="20" height="20"/><rect x="316" y="238" width="20" height="58"/><rect x="350" y="240" width="20" height="20"/><rect x="170" y="314" width="20" height="58"/><rect x="208" y="330" width="58" height="20"/><rect x="244" y="294" width="20" height="20"/><rect x="280" y="320" width="58" height="20"/><rect x="350" y="310" width="20" height="60"/></g>
<rect x="86" y="181" width="248" height="62" rx="15" fill="#0d1813" opacity=".97"/><text x="210" y="207" text-anchor="middle" font-family="Arial,Microsoft YaHei,sans-serif" font-size="20" font-weight="700" fill="#f5f8f6">微信二维码占位</text><text x="210" y="230" text-anchor="middle" font-family="Arial,Microsoft YaHei,sans-serif" font-size="13" fill="#a4b2aa">替换同名图片即可</text></svg>